#!OML:ASF X:\für Bonn\!DataBase\2005_08_10_Bjorn_Final\c3d\bjorn.ASF
:FULLY-SPECIFIED
:DEGREES
62
root -10.1984 18.2225 0.686725 721.258 81.586 6.51055
lowerback -1.7856 -2.54329 5.82801
upperback 11.5534 -3.98514 5.19491
thorax 13.6323 -1.42017 2.01326
lowerneck 8.1478 2.54693 2.15885
upperneck 16.6263 6.42981 -15.976
head 4.14336 3.07687 -5.26344
rclavicle -4.37326e-014 9.54166e-015
rhumerus -17.878 -3.44868 -78.7629
rradius 50.2788
rwrist -1.06468
rhand -10.9507 12.6729
rfingers 7.12502
rthumb 15.068 -16.7587
lclavicle -4.37326e-014 9.54166e-015
lhumerus -30.8248 -10.4796 67.9413
lradius 39.829
lwrist -20.0329
lhand -30.3346 -14.2554
lfingers 7.12502
lthumb -3.64058 15.6932
rfemur -4.398 6.93476 19.2146
rtibia 43.3997
rfoot -30.7412 8.81198
rtoes -12.9405
lfemur -32.5491 7.47265 -9.23244
ltibia 36.2436
lfoot 5.93292 -1.11177
ltoes -20.94
63
root -10.1351 18.2226 0.672125 720.645 81.467 5.71239
lowerback -1.87485 -2.54658 5.79393
upperback 11.5929 -3.99966 5.20042
thorax 13.7398 -1.42907 2.03527
lowerneck 8.19766 2.57972 2.08455
upperneck 16.4397 6.42973 -15.9622
head 4.0764 3.07994 -5.24569
rclavicle 3.18055e-015 -2.54444e-014
rhumerus -17.928 -3.49725 -78.8234
rradius 50.1281
rwrist -0.996574
rhand -10.9676 12.6594
rfingers 7.12502
rthumb 15.0517 -16.7735
lclavicle 3.18055e-015 -2.54444e-014
lhumerus -30.7931 -10.3919 67.9904
lradius 39.7332
lwrist -20.1039
lhand -30.2496 -14.2205
lfingers 7.12502
lthumb -3.55847 15.7295
rfemur -4.26795 6.8877 19.2018
rtibia 43.1513
rfoot -30.7479 9.11755
rtoes -12.9087
lfemur -32.3263 7.43653 -9.10724
ltibia 35.8543
lfoot 5.92188 -1.07621
ltoes -21.006
64
root -10.0719 18.2237 0.655408 719.899 81.3461 4.79015
lowerback -1.92094 -2.54704 5.78541
upperback 11.6221 -4.00777 5.21789
thorax 13.8072 -1.43359 2.0582
lowerneck 8.16603 2.60239 2.04224
upperneck 16.3773 6.45133 -16.0034
head 4.06477 3.08635 -5.25003
rclavicle -1.51076e-014 3.33958e-014
rhumerus -17.9993 -3.53565 -78.8531
rradius 49.9751
rwrist -0.903287
rhand -10.9791 12.6091
rfingers 7.12502
rthumb 15.0407 -16.8246
lclavicle -1.51076e-014 3.33958e-014
lhumerus -30.7843 -10.2466 68.0679
lradius 39.641
lwrist -20.2652
lhand -30.1707 -14.1964
lfingers 7.12502
lthumb -3.48231 15.7549
rfemur -4.10865 6.82695 19.2022
rtibia 42.8629
rfoot -30.6944 9.44219
rtoes -12.6931
lfemur -32.1331 7.45711 -8.99895
ltibia 35.5476
lfoot 5.91591 -1.07988
ltoes -21.0015
65
root -10.0076 18.2255 0.637774 719.312 81.2187 4.03966
lowerback -1.94633 -2.53312 5.76202
upperback 11.6511 -3.99191 5.22382
thorax 13.8608 -1.42789 2.08014
lowerneck 8.20348 2.61272 2.00195
upperneck 16.2259 6.43379 -16.0178
head 4.01012 3.08081 -5.24774
rclavicle -7.95139e-016 -4.92986e-014
rhumerus -18.071 -3.61919 -78.8885
rradius 49.7651
rwrist -0.80111
rhand -11.0181 12.5878
rfingers 7.12502
rthumb 15.0031 -16.8487
lclavicle -7.95139e-016 -4.92986e-014
lhumerus -30.7948 -10.1555 68.1481
lradius 39.5748
lwrist -20.3673
lhand -30.1147 -14.1476
lfingers 7.12502
lthumb -3.4282 15.8046
rfemur -3.92848 6.75875 19.1684
rtibia 42.5562
rfoot -30.6481 9.78173
rtoes -12.5602
lfemur -31.9594 7.54311 -8.94592
ltibia 35.3029
lfoot 5.85737 -1.04058
ltoes -20.7822
66
root -9.9427 18.2281 0.618948 718.454 81.104 3.02511
lowerback -1.94652 -2.52041 5.80839
upperback 11.6726 -3.97924 5.2189
thorax 13.8839 -1.41561 2.05158
lowerneck 8.19258 2.62446 1.99429
upperneck 16.1494 6.43148 -16.0153
head 3.98815 3.07966 -5.24475
rclavicle 6.36111e-015 9.54166e-015
rhumerus -18.1651 -3.72551 -78.9432
rradius 49.5666
rwrist -0.742226
rhand -11.0025 12.4823
rfingers 7.12502
rthumb 15.018 -16.953
lclavicle 6.36111e-015 9.54166e-015
lhumerus -30.8186 -10.1253 68.2063
lradius 39.5055
lwrist -20.4205
lhand -30.0684 -14.1834
lfingers 7.12502
lthumb -3.38353 15.7695
rfemur -3.71615 6.67507 19.1813
rtibia 42.2174
rfoot -30.5554 10.1615
rtoes -12.1616
lfemur -31.8101 7.64625 -8.87632
ltibia 35.1261
lfoot 5.81678 -1.0541
ltoes -20.8228
67
root -9.8768 18.2318 0.599233 717.9 80.9737 2.31706
lowerback -1.94084 -2.49673 5.81371
upperback 11.6945 -3.94671 5.19789
thorax 13.9047 -1.39767 2.03041
lowerneck 8.25345 2.62879 1.98428
upperneck 16.0236 6.4105 -16.0201
head 3.93757 3.07475 -5.24554
rclavicle 4.77083e-014 -1.59028e-014
rhumerus -18.2312 -3.86397 -79.0114
rradius 49.274
rwrist -0.637655
rhand -11.0252 12.4567
rfingers 7.12502
rthumb 14.9962 -16.9803
lclavicle 4.77083e-014 -1.59028e-014
lhumerus -30.832 -10.0814 68.2678
lradius 39.4294
lwrist -20.4964
lhand -30.0474 -14.1582
lfingers 7.12502
lthumb -3.36323 15.795
rfemur -3.49345 6.58936 19.1338
rtibia 41.854
rfoot -30.4426 10.5259
rtoes -11.9225
lfemur -31.6774 7.7868 -8.86537
ltibia 35.0014
lfoot 5.74817 -1.14072
ltoes -20.9728
68
root -9.81081 18.2371 0.578551 717.089 80.8633 1.34832
lowerback -1.91431 -2.47188 5.85878
upperback 11.694 -3.914 5.19487
thorax 13.8843 -1.37744 2.00714
lowerneck 8.32351 2.62307 1.99063
upperneck 15.9453 6.38481 -16.0168
head 3.89965 3.06777 -5.24723
rclavicle 5.56597e-014 -1.145e-013
rhumerus -18.3615 -4.05747 -79.0575
rradius 49.0194
rwrist -0.522494
rhand -10.9288 12.5198
rfingers 7.12502
rthumb 15.089 -16.9102
lclavicle 5.56597e-014 -1.145e-013
lhumerus -30.906 -10.0611 68.3566
lradius 39.3925
lwrist -20.5356
lhand -30.0403 -14.1452
lfingers 7.12502
lthumb -3.35634 15.8081
rfemur -3.25177 6.50336 19.1401
rtibia 41.4579
rfoot -30.3272 10.8894
rtoes -11.6295
lfemur -31.563 7.9305 -8.82072
ltibia 34.9333
lfoot 5.65827 -1.21968
ltoes -20.9908
69
root -9.74307 18.2438 0.557228 716.348 80.737 0.44151
lowerback -1.89604 -2.44047 5.90448
upperback 11.7 -3.8725 5.17545
thorax 13.8756 -1.35159 1.96637
lowerneck 8.37977 2.62293 1.99993
upperneck 15.8426 6.36118 -16.0087
head 3.85677 3.06183 -5.2473
rclavicle 7.95139e-015 -1.74931e-014
rhumerus -18.4253 -4.28001 -79.1327
rradius 48.6847
rwrist -0.355919
rhand -10.8021 12.6304
rfingers 7.12502
rthumb 15.2111 -16.7904
lclavicle 7.95139e-015 -1.74931e-014
lhumerus -30.9659 -10.08 68.4169
lradius 39.3444
lwrist -20.5739
lhand -30.0341 -14.1784
lfingers 7.12502
lthumb -3.35035 15.7751
rfemur -3.00266 6.39897 19.1269
rtibia 41.0334
rfoot -30.2133 11.2146
rtoes -11.516
lfemur -31.449 8.0797 -8.78643
ltibia 34.9032
lfoot 5.53786 -1.32629
ltoes -21.1049
70
root -9.67387 18.252 0.533706 715.642 80.5989 -0.442803
lowerback -1.90614 -2.39905 5.96859
upperback 11.7142 -3.8225 5.15712
thorax 13.8943 -1.31897 1.9175
lowerneck 8.39088 2.62238 1.98812
upperneck 15.7528 6.33805 -15.993
head 3.82477 3.05251 -5.24019
rclavicle 1.66979e-014 -3.97569e-014
rhumerus -18.4887 -4.57252 -79.2021
rradius 48.3819
rwrist -0.19938
rhand -10.6252 12.7573
rfingers 7.12502
rthumb 15.3816 -16.6505
lclavicle 1.66979e-014 -3.97569e-014
lhumerus -31.0073 -10.0908 68.5008
lradius 39.2937
lwrist -20.5828
lhand -30.0872 -14.1862
lfingers 7.12502
lthumb -3.40163 15.7664
rfemur -2.75557 6.29924 19.0961
rtibia 40.5821
rfoot -30.0852 11.5944
rtoes -11.2542
lfemur -31.3366 8.19928 -8.74538
ltibia 34.905
lfoot 5.35572 -1.37585
ltoes -20.961
71
root -9.60345 18.2618 0.51032 715.012 80.4569 -1.29382
lowerback -1.91516 -2.3532 6.01253
upperback 11.6875 -3.76498 5.14895
thorax 13.8646 -1.28801 1.89035
lowerneck 8.4579 2.6281 1.98179
upperneck 15.6365 6.31898 -15.9798
head 3.77615 3.04938 -5.23599
rclavicle 0 -1.27222e-014
rhumerus -18.6347 -4.79906 -79.2289
rradius 48.1151
rwrist -0.032156
rhand -10.4668 12.8575
rfingers 7.12502
rthumb 15.5341 -16.5386
lclavicle 0 -1.27222e-014
lhumerus -31.1217 -10.1786 68.6152
lradius 39.2814
lwrist -20.5621
lhand -30.1087 -14.1104
lfingers 7.12502
lthumb -3.42239 15.8419
rfemur -2.54441 6.21467 19.063
rtibia 40.1057
rfoot -29.9 11.9611
rtoes -10.8198
lfemur -31.2725 8.30241 -8.69468
ltibia 34.9212
lfoot 5.1537 -1.36286
ltoes -20.292
72
root -9.53218 18.2723 0.486463 714.261 80.3131 -2.23308
lowerback -1.88737 -2.31806 6.04858
upperback 11.6832 -3.71914 5.17016
thorax 13.8421 -1.26429 1.9006
lowerneck 8.47588 2.6498 1.85376
upperneck 15.5167 6.31456 -15.9477
head 3.7334 3.04582 -5.20322
rclavicle 3.57812e-014 -1.74931e-014
rhumerus -18.7351 -4.96576 -79.2234
rradius 47.8593
rwrist 0.0733349
rhand -10.3278 13.0141
rfingers 7.12502
rthumb 15.668 -16.3715
lclavicle 3.57812e-014 -1.74931e-014
lhumerus -31.2087 -10.1436 68.7598
lradius 39.253
lwrist -20.5681
lhand -30.1716 -14.0647
lfingers 7.12502
lthumb -3.48313 15.8866
rfemur -2.28239 6.14473 19.0558
rtibia 39.6101
rfoot -29.7508 12.3006
rtoes -10.5825
lfemur -31.1771 8.43714 -8.6378
ltibia 34.9466
lfoot 4.96714 -1.45831
ltoes -19.7633
73
root -9.46086 18.2834 0.461379 713.583 80.1536 -3.14275
lowerback -1.88401 -2.26691 6.08887
upperback 11.6744 -3.65435 5.18339
thorax 13.8289 -1.23068 1.90133
lowerneck 8.47925 2.67218 1.76542
upperneck 15.3586 6.30369 -15.9096
head 3.68141 3.04131 -5.17486
rclavicle -2.06736e-014 -3.49861e-014
rhumerus -18.8259 -5.14033 -79.2293
rradius 47.603
rwrist 0.123241
rhand -10.2403 13.1404
rfingers 7.12502
rthumb 15.7522 -16.2386
lclavicle -2.06736e-014 -3.49861e-014
lhumerus -31.2812 -10.1359 68.8835
lradius 39.2478
lwrist -20.5665
lhand -30.2596 -14.0292
lfingers 7.12502
lthumb -3.5682 15.9207
rfemur -2.05895 6.07334 19.0361
rtibia 39.1013
rfoot -29.5883 12.656
rtoes -10.329
lfemur -31.134 8.5512 -8.57811
ltibia 34.9722
lfoot 4.78602 -1.49639
ltoes -18.9579
74
root -9.38862 18.2966 0.435641 713.024 80.0286 -3.92016
lowerback -1.85655 -2.22433 6.12195
upperback 11.6519 -3.5957 5.17437
thorax 13.7817 -1.20037 1.88025
lowerneck 8.48547 2.69677 1.68378
upperneck 15.2621 6.30505 -15.849
head 3.64859 3.04181 -5.14082
rclavicle -2.94201e-014 3.49861e-014
rhumerus -18.9803 -5.32279 -79.2496
rradius 47.4154
rwrist 0.21355
rhand -10.1088 13.2682
rfingers 7.12502
rthumb 15.8788 -16.1008
lclavicle -2.94201e-014 3.49861e-014
lhumerus -31.3947 -10.2207 68.9889
lradius 39.2639
lwrist -20.5343
lhand -30.3302 -13.9799
lfingers 7.12502
lthumb -3.6363 15.9688
rfemur -1.81314 5.9626 18.9859
rtibia 38.573
rfoot -29.4169 13.0101
rtoes -10.0164
lfemur -31.0902 8.66902 -8.5631
ltibia 35.0061
lfoot 4.56919 -1.5622
ltoes -18.3239
